<?xml version="1.0" encoding="UTF-8"?>
<svg xmlns="http://www.w3.org/2000/svg" xmlns:xlink="http://www.w3.org/1999/xlink" width="192pt" height="192pt" viewBox="0 0 192 192" version="1.1">
<defs>
<clipPath id="clip1">
  <path d="M 0 0 L 190.425781 0 L 190.425781 190.425781 L 0 190.425781 Z M 0 0 "/>
</clipPath>
<clipPath id="clip2">
  <path d="M 95.214844 0 C 42.628906 0 0 42.628906 0 95.214844 C 0 147.800781 42.628906 190.425781 95.214844 190.425781 C 147.800781 190.425781 190.425781 147.800781 190.425781 95.214844 C 190.425781 42.628906 147.800781 0 95.214844 0 Z M 95.214844 0 "/>
</clipPath>
<clipPath id="clip3">
  <path d="M 0 0 L 190.082031 0 L 190.082031 190.082031 L 0 190.082031 Z M 0 0 "/>
</clipPath>
<clipPath id="clip4">
  <path d="M 95.039062 0 C 42.554688 0 0 42.554688 0 95.039062 C 0 147.527344 42.554688 190.082031 95.039062 190.082031 C 147.527344 190.082031 190.082031 147.527344 190.082031 95.039062 C 190.082031 42.554688 147.527344 0 95.039062 0 Z M 95.039062 0 "/>
</clipPath>
<clipPath id="clip5">
  <path d="M 34.058594 23.722656 L 155.980469 23.722656 L 155.980469 132 L 34.058594 132 Z M 34.058594 23.722656 "/>
</clipPath>
<clipPath id="clip6">
  <path d="M 54.101562 116.117188 L 120.335938 116.117188 L 120.335938 166.996094 L 54.101562 166.996094 Z M 54.101562 116.117188 "/>
</clipPath>
</defs>
<g id="surface8">
<g clip-path="url(#clip1)" clip-rule="nonzero">
<g clip-path="url(#clip2)" clip-rule="nonzero">
<path style=" stroke:none;fill-rule:nonzero;fill:rgb(3.921569%,12.156863%,26.666667%);fill-opacity:1;" d="M 0 0 L 190.425781 0 L 190.425781 190.425781 L 0 190.425781 Z M 0 0 "/>
</g>
</g>
<g clip-path="url(#clip3)" clip-rule="nonzero">
<g clip-path="url(#clip4)" clip-rule="nonzero">
<path style="fill:none;stroke-width:26;stroke-linecap:butt;stroke-linejoin:miter;stroke:rgb(0%,68.235294%,93.72549%);stroke-opacity:1;stroke-miterlimit:4;" d="M 99.178706 -0.00000468521 C 44.408253 -0.00000468521 -0.0000020137 44.40825 -0.0000020137 99.178703 C -0.0000020137 153.953233 44.408253 198.361488 99.178706 198.361488 C 153.953235 198.361488 198.36149 153.953233 198.36149 99.178703 C 198.36149 44.40825 153.953235 -0.00000468521 99.178706 -0.00000468521 Z M 99.178706 -0.00000468521 " transform="matrix(0.958261,0,0,0.958261,0.00000192965,0.00000448965)"/>
</g>
</g>
<g clip-path="url(#clip5)" clip-rule="nonzero">
<path style=" stroke:none;fill-rule:evenodd;fill:rgb(96.078431%,96.862745%,98.039216%);fill-opacity:1;" d="M 84.035156 69.453125 L 89.527344 73.207031 C 89.808594 72.6875 90.355469 72.339844 90.980469 72.339844 L 99.355469 72.339844 C 100.269531 72.339844 101.015625 73.085938 101.015625 74 L 101.015625 82.375 C 101.015625 83.292969 100.269531 84.035156 99.355469 84.035156 L 95.300781 84.035156 L 91.773438 90.984375 L 92.476562 90.984375 C 93.652344 90.984375 94.609375 91.945312 94.609375 93.121094 L 94.609375 97.773438 L 106.441406 97.96875 L 106.441406 97.679688 C 106.441406 96.984375 107.011719 96.417969 107.703125 96.417969 L 114.085938 96.417969 C 114.785156 96.417969 115.351562 96.984375 115.351562 97.679688 L 115.351562 104.066406 C 115.351562 104.757812 114.785156 105.328125 114.085938 105.328125 L 107.703125 105.328125 C 107.011719 105.328125 106.441406 104.757812 106.441406 104.066406 L 106.441406 101.117188 L 94.609375 100.925781 L 94.609375 103.894531 C 94.609375 105.066406 93.652344 106.023438 92.476562 106.023438 L 81.703125 106.023438 C 80.53125 106.023438 79.574219 105.066406 79.574219 103.894531 L 79.574219 93.121094 C 79.574219 91.949219 80.53125 90.988281 81.703125 90.988281 L 88.242188 90.988281 L 91.769531 84.035156 L 90.980469 84.035156 C 90.070312 84.035156 89.320312 83.292969 89.320312 82.375 L 89.320312 76.878906 L 83.714844 73.050781 C 83.261719 73.875 82.390625 74.433594 81.390625 74.433594 L 68.03125 74.433594 C 66.574219 74.433594 65.386719 73.242188 65.386719 71.785156 L 65.386719 58.425781 C 65.386719 56.96875 66.574219 55.777344 68.03125 55.777344 L 81.390625 55.777344 C 82.847656 55.777344 84.035156 56.96875 84.035156 58.425781 Z M 54.734375 52.988281 L 47.425781 62.207031 L 47.425781 71.28125 C 47.425781 71.722656 47.269531 72.128906 47.015625 72.453125 L 52.277344 78.742188 L 61.480469 78.742188 C 62.941406 78.742188 64.125 79.933594 64.125 81.386719 L 64.125 94.75 C 64.125 96.207031 62.933594 97.398438 61.480469 97.398438 L 48.121094 97.398438 C 46.664062 97.398438 45.476562 96.207031 45.476562 94.75 L 45.476562 81.386719 C 45.476562 79.933594 46.667969 78.742188 48.121094 78.742188 L 48.164062 78.742188 L 43.507812 73.175781 L 35.953125 73.175781 C 34.914062 73.175781 34.058594 72.320312 34.058594 71.28125 L 34.058594 61.707031 C 34.058594 60.667969 34.914062 59.8125 35.953125 59.8125 L 45.296875 59.8125 L 50.777344 52.90625 C 49.652344 52.601562 48.8125 51.566406 48.8125 50.351562 L 48.8125 36.984375 C 48.8125 35.527344 50.003906 34.339844 51.457031 34.339844 L 64.820312 34.339844 C 66.277344 34.339844 67.460938 35.527344 67.460938 36.984375 L 67.460938 50.347656 C 67.460938 51.804688 66.277344 52.988281 64.820312 52.988281 Z M 120.386719 118.835938 L 128.582031 109.773438 L 128.582031 94.3125 C 128.582031 93.492188 128.910156 92.75 129.441406 92.199219 L 125.125 87.195312 C 124.980469 87.222656 124.828125 87.230469 124.679688 87.230469 L 111.3125 87.230469 C 109.859375 87.230469 108.667969 86.046875 108.667969 84.589844 L 108.667969 71.226562 C 108.667969 69.769531 109.859375 68.582031 111.3125 68.582031 L 124.679688 68.582031 C 126.136719 68.582031 127.320312 69.773438 127.320312 71.226562 L 127.320312 84.589844 C 127.320312 84.695312 127.316406 84.800781 127.300781 84.90625 L 132.792969 91.277344 L 146.96875 91.277344 C 148.644531 91.277344 150.003906 92.644531 150.003906 94.3125 L 150.003906 109.664062 C 150.003906 111.335938 148.636719 112.703125 146.96875 112.703125 L 131.613281 112.703125 C 131.1875 112.703125 130.773438 112.609375 130.402344 112.445312 L 122.863281 120.777344 L 122.863281 129.824219 C 122.863281 130.824219 122.046875 131.636719 121.050781 131.636719 L 111.875 131.636719 C 110.875 131.636719 110.058594 130.824219 110.058594 129.824219 L 110.058594 120.648438 C 110.058594 119.648438 110.878906 118.835938 111.875 118.835938 Z M 145.722656 66.773438 L 140.738281 57.160156 L 134.125 57.160156 C 133.058594 57.160156 132.195312 56.292969 132.195312 55.230469 L 132.195312 45.460938 C 132.195312 44.398438 133.058594 43.527344 134.125 43.527344 L 143.894531 43.527344 C 144.960938 43.527344 145.828125 44.398438 145.828125 45.460938 L 145.828125 55.230469 C 145.828125 56.164062 145.15625 56.949219 144.265625 57.125 L 149.265625 66.773438 L 154.058594 66.773438 C 155.121094 66.773438 155.988281 67.644531 155.988281 68.703125 L 155.988281 78.472656 C 155.988281 79.539062 155.121094 80.40625 154.058594 80.40625 L 144.292969 80.40625 C 143.226562 80.40625 142.355469 79.539062 142.355469 78.472656 L 142.355469 68.703125 C 142.355469 67.644531 143.226562 66.773438 144.292969 66.773438 Z M 83.753906 23.757812 L 97.117188 23.757812 C 98.574219 23.757812 99.757812 24.949219 99.757812 26.402344 L 99.757812 39.769531 C 99.757812 41.226562 98.574219 42.410156 97.117188 42.410156 L 94.625 42.410156 L 97.402344 49.234375 L 104.367188 49.234375 C 104.492188 49.234375 104.613281 49.25 104.730469 49.269531 L 108.933594 45.71875 C 108.425781 45.234375 108.109375 44.558594 108.109375 43.804688 L 108.109375 30.441406 C 108.109375 28.984375 109.300781 27.800781 110.753906 27.800781 L 124.121094 27.800781 C 125.578125 27.800781 126.765625 28.984375 126.765625 30.441406 L 126.765625 43.804688 C 126.765625 45.261719 125.574219 46.445312 124.121094 46.445312 L 112.953125 46.445312 L 106.296875 52.070312 L 106.296875 60.941406 C 106.296875 62 105.425781 62.871094 104.367188 62.871094 L 94.597656 62.871094 C 93.53125 62.871094 92.664062 62 92.664062 60.941406 L 92.664062 51.171875 C 92.664062 50.300781 93.242188 49.5625 94.03125 49.320312 L 91.214844 42.410156 L 83.753906 42.410156 C 82.296875 42.410156 81.105469 41.222656 81.105469 39.769531 L 81.105469 26.402344 C 81.109375 24.949219 82.300781 23.757812 83.753906 23.757812 Z M 83.753906 23.757812 "/>
</g>
<g clip-path="url(#clip6)" clip-rule="nonzero">
<path style=" stroke:none;fill-rule:nonzero;fill:rgb(96.078431%,96.862745%,98.039216%);fill-opacity:1;" d="M 86.058594 164.546875 L 86.058594 158.226562 C 86.058594 157.058594 85.117188 156.121094 83.949219 156.121094 L 78.503906 156.121094 L 70.335938 147.953125 C 70.339844 147.898438 70.355469 147.84375 70.355469 147.792969 L 70.355469 138.304688 C 70.355469 138.25 70.339844 138.195312 70.335938 138.144531 L 76.578125 131.90625 C 76.632812 131.90625 76.683594 131.917969 76.742188 131.917969 L 86.226562 131.917969 C 86.28125 131.917969 86.335938 131.910156 86.390625 131.90625 L 89.542969 135.054688 C 89.453125 135.402344 89.386719 135.757812 89.386719 136.136719 L 89.386719 148.777344 C 89.386719 151.109375 91.269531 152.996094 93.601562 152.996094 L 106.246094 152.996094 C 108.578125 152.996094 110.460938 151.109375 110.460938 148.777344 L 110.460938 136.136719 C 110.460938 135.757812 110.398438 135.402344 110.304688 135.054688 L 112.777344 132.582031 L 118.226562 132.582031 C 119.390625 132.582031 120.335938 131.636719 120.335938 130.476562 L 120.335938 124.15625 C 120.335938 122.988281 119.390625 122.046875 118.226562 122.046875 L 111.90625 122.046875 C 110.742188 122.046875 109.800781 122.988281 109.800781 124.15625 L 109.800781 129.601562 L 107.328125 132.074219 C 106.980469 131.984375 106.625 131.917969 106.246094 131.917969 L 93.601562 131.917969 C 93.226562 131.917969 92.871094 131.984375 92.527344 132.074219 L 89.371094 128.925781 C 89.375 128.871094 89.390625 128.8125 89.390625 128.757812 L 89.390625 119.277344 C 89.390625 117.527344 87.976562 116.117188 86.226562 116.117188 L 76.742188 116.117188 C 75 116.117188 73.582031 117.527344 73.582031 119.277344 L 73.582031 128.757812 C 73.582031 128.8125 73.597656 128.871094 73.597656 128.925781 L 67.363281 135.164062 C 67.304688 135.160156 67.25 135.144531 67.195312 135.144531 L 57.714844 135.144531 C 55.964844 135.144531 54.554688 136.5625 54.554688 138.304688 L 54.554688 147.792969 C 54.554688 149.539062 55.964844 150.953125 57.714844 150.953125 L 67.195312 150.953125 C 67.25 150.953125 67.304688 150.941406 67.363281 150.933594 L 75.523438 159.101562 L 75.523438 164.546875 C 75.523438 165.714844 76.46875 166.660156 77.632812 166.660156 L 83.953125 166.660156 C 85.117188 166.660156 86.058594 165.714844 86.058594 164.546875 Z M 86.058594 164.546875 "/>
</g>
</g>
</svg>
